<svg width="191" height="130" viewBox="0 0 191 130" fill="none" xmlns="http://www.w3.org/2000/svg">
<path fill-rule="evenodd" clip-rule="evenodd" d="M26.6593 109.723C50.681 110.586 76.3612 99.6406 94.9328 78.1664C113.504 56.6922 120.632 29.702 116.314 6.05581C92.2924 5.19279 66.6121 16.1382 48.0405 37.6124C29.4689 59.0866 22.3412 86.0768 26.6593 109.723Z" fill="black" fill-opacity="0.2"/>
<mask id="path-2-inside-1_36_125" fill="white">
<path fill-rule="evenodd" clip-rule="evenodd" d="M23.4461 106.944C47.4678 107.807 73.1481 96.8618 91.7197 75.3876C110.291 53.9134 117.419 26.9232 113.101 3.277C89.0792 2.41398 63.399 13.3594 44.8274 34.8336C26.2558 56.3078 19.128 83.298 23.4461 106.944Z"/>
</mask>
<path fill-rule="evenodd" clip-rule="evenodd" d="M23.4461 106.944C47.4678 107.807 73.1481 96.8618 91.7197 75.3876C110.291 53.9134 117.419 26.9232 113.101 3.277C89.0792 2.41398 63.399 13.3594 44.8274 34.8336C26.2558 56.3078 19.128 83.298 23.4461 106.944Z" fill="#1F8506"/>
<path d="M23.4461 106.944L18.5275 107.842L19.2496 111.797L23.2666 111.941L23.4461 106.944ZM113.101 3.277L118.02 2.37879L117.297 -1.57545L113.28 -1.71977L113.101 3.277ZM87.9378 72.1169C70.2888 92.5242 46.0324 102.752 23.6256 101.947L23.2666 111.941C48.9033 112.862 76.0073 101.199 95.5015 78.6583L87.9378 72.1169ZM108.182 4.17521C112.21 26.2317 105.587 51.7096 87.9378 72.1169L95.5015 78.6583C114.996 56.1173 122.628 27.6147 118.02 2.37879L108.182 4.17521ZM48.6093 38.1043C66.2582 17.6969 90.5147 7.46878 112.921 8.27378L113.28 -1.71977C87.6438 -2.64082 60.5397 9.02187 41.0455 31.5629L48.6093 38.1043ZM28.3648 106.046C24.337 83.9895 30.9603 58.5116 48.6093 38.1043L41.0455 31.5629C21.5513 54.1039 13.9191 82.6065 18.5275 107.842L28.3648 106.046Z" fill="black" mask="url(#path-2-inside-1_36_125)"/>
<path d="M111.129 5.86073L26.5139 105.308L24.9231 103.933L111.129 5.86073Z" fill="black"/>
<path fill-rule="evenodd" clip-rule="evenodd" d="M23.4065 105.994C47.1331 106.516 72.3514 95.5788 90.6605 74.4081C108.729 53.516 115.965 27.4027 112.368 4.22746L23.4065 105.994Z" fill="black" fill-opacity="0.3"/>
<path d="M80.6528 18.3773C67.949 24.1195 55.0335 31.6926 54.7681 30.8451C54.7681 30.8451 65.9125 20.9484 78.6163 15.2063C91.32 9.46414 104.07 8.80449 104.07 8.80449C104.336 9.65205 93.3565 12.6352 80.6528 18.3773Z" fill="white" fill-opacity="0.5"/>
<path d="M48.08 36.68H56.88C59.8933 36.68 62.12 37.3067 63.56 38.56C65 39.8133 65.72 41.3467 65.72 43.16C65.72 46.28 64.1333 48.4267 60.96 49.6C62.72 49.8667 64.16 50.5333 65.28 51.6C66.4 52.64 66.96 54.04 66.96 55.8C66.9867 58.36 66.1333 60.3733 64.4 61.84C62.6667 63.28 60.2267 64 57.08 64H46.68C46.7067 63.2533 46.8133 62.6933 47 62.32C47.2133 61.92 47.5867 61.7067 48.12 61.68L49.64 61.52V39.2L46.72 38.96C46.64 38.3467 46.7467 37.8133 47.04 37.36C47.3333 36.9067 47.68 36.68 48.08 36.68ZM53.84 48.84H55C57.24 48.84 58.8533 48.4 59.84 47.52C60.8533 46.64 61.36 45.3467 61.36 43.64C61.36 41.9067 60.84 40.6533 59.8 39.88C58.76 39.1067 57.36 38.7867 55.6 38.92L53.84 39V48.84ZM62.64 56.28C62.64 54.3867 62.0533 53.0267 60.88 52.2C59.7067 51.3733 57.9067 50.9733 55.48 51L53.84 51.04V61.48L56.08 61.52C60.4533 61.5467 62.64 59.8 62.64 56.28ZM77.9288 64H69.4888V63.68C69.4888 62.4533 70.0088 61.7867 71.0488 61.68L72.4488 61.6V46.6L70.6888 46.4C69.8354 46.32 69.4088 45.6 69.4088 44.24L76.5288 43.44V61.52L79.4488 61.76C79.6088 63.2533 79.1021 64 77.9288 64ZM76.7688 38.56C76.7688 39.3067 76.5154 39.9333 76.0088 40.44C75.5288 40.92 74.9154 41.16 74.1688 41.16C73.4488 41.16 72.8354 40.92 72.3288 40.44C71.8488 39.9333 71.6088 39.3067 71.6088 38.56C71.6088 37.8133 71.8488 37.2 72.3288 36.72C72.8354 36.2133 73.4488 35.96 74.1688 35.96C74.9154 35.96 75.5288 36.2133 76.0088 36.72C76.5154 37.2 76.7688 37.8133 76.7688 38.56ZM90.8734 46.16C89.3268 46.16 88.1268 46.8933 87.2734 48.36C86.4201 49.8 85.9934 51.72 85.9934 54.12C85.9934 56.52 86.4068 58.4267 87.2334 59.84C88.0601 61.2533 89.2468 61.96 90.7934 61.96C92.3668 61.9333 93.5801 61.24 94.4334 59.88C95.2868 58.4933 95.7134 56.6 95.7134 54.2C95.7134 51.8 95.3001 49.8533 94.4734 48.36C93.6468 46.8667 92.4468 46.1333 90.8734 46.16ZM81.7134 54.4C81.7134 51.0667 82.5401 48.4133 84.1934 46.44C85.8734 44.44 88.1134 43.44 90.9134 43.44C93.7134 43.44 95.9134 44.32 97.5134 46.08C99.1401 47.8133 99.9534 50.3733 99.9534 53.76C99.9801 57.12 99.1534 59.7733 97.4734 61.72C95.8201 63.64 93.5268 64.6 90.5934 64.6C87.6868 64.6 85.4868 63.7333 83.9934 62C82.5001 60.2667 81.7401 57.7333 81.7134 54.4Z" fill="white"/>
<path d="M125.63 64H115.76V63.624C115.76 62.872 115.87 62.3707 116.089 62.12C116.497 61.6187 117.014 61.3367 117.64 61.274L119.285 61.18V34.437L117.217 34.249C116.215 34.1237 115.713 33.262 115.713 31.664L124.079 30.724V61.086L127.416 61.368C127.604 63.1227 127.009 64 125.63 64ZM140.091 64H130.174V63.624C130.174 62.1827 130.785 61.3993 132.007 61.274L133.652 61.18V43.555L131.584 43.32C130.581 43.226 130.08 42.38 130.08 40.782L138.446 39.842V61.086L141.877 61.368C142.065 63.1227 141.469 64 140.091 64ZM138.728 34.108C138.728 34.9853 138.43 35.7217 137.835 36.317C137.271 36.881 136.55 37.163 135.673 37.163C134.827 37.163 134.106 36.881 133.511 36.317C132.947 35.7217 132.665 34.9853 132.665 34.108C132.665 33.2307 132.947 32.51 133.511 31.946C134.106 31.3507 134.827 31.053 135.673 31.053C136.55 31.053 137.271 31.3507 137.835 31.946C138.43 32.51 138.728 33.2307 138.728 34.108ZM147.969 40.547V39.09C147.969 36.3953 148.705 34.2177 150.178 32.557C151.682 30.865 153.687 30.0033 156.194 29.972C159.358 29.972 160.941 30.959 160.941 32.933C160.941 33.8417 160.643 34.531 160.048 35.001C159.484 35.4397 158.732 35.659 157.792 35.659C157.792 34.719 157.572 34.014 157.134 33.544C156.695 33.074 156.147 32.839 155.489 32.839C153.671 32.839 152.763 34.7503 152.763 38.573V40.547H158.685C158.841 42.4583 158.215 43.414 156.805 43.414H152.763V61.086L157.463 61.368C157.619 63.1227 157.024 64 155.677 64H144.538C144.538 64 144.538 63.8747 144.538 63.624C144.538 62.1827 145.149 61.3993 146.371 61.274L147.969 61.18V43.414H144.632C144.632 41.5027 145.274 40.547 146.559 40.547H147.969ZM166.826 52.156V53.049C166.826 55.6497 167.327 57.6393 168.33 59.018C169.332 60.3967 170.993 61.086 173.312 61.086C175.662 61.086 177.902 60.24 180.033 58.548C180.565 58.924 180.832 59.488 180.832 60.24C180.832 61.2427 179.97 62.2453 178.247 63.248C176.523 64.2193 174.455 64.705 172.043 64.705C168.815 64.705 166.293 63.7337 164.476 61.791C162.69 59.817 161.797 56.8247 161.797 52.814C161.797 48.8033 162.815 45.6387 164.852 43.32C166.888 41.0013 169.442 39.842 172.513 39.842C175.615 39.842 177.871 40.7663 179.281 42.615C180.691 44.4637 181.38 46.798 181.349 49.618V52.156H166.826ZM172.372 43.085C169.52 43.085 167.766 45.1687 167.108 49.336H176.602C176.508 45.1687 175.098 43.085 172.372 43.085Z" fill="black"/>
</svg>
